<mxfile host="app.diagrams.net" agent="Mozilla/5.0 (Windows NT 10.0; Win64; x64) AppleWebKit/537.36 (KHTML, like Gecko) Chrome/130.0.0.0 Safari/537.36" version="24.8.3">
  <diagram name="StrÃ¡nka-1" id="K-nAWtYQ2BeKTEC5P5I5">
    <mxGraphModel dx="1687" dy="908" grid="1" gridSize="10" guides="1" tooltips="1" connect="1" arrows="1" fold="1" page="1" pageScale="1" pageWidth="827" pageHeight="1169" math="0" shadow="0">
      <root>
        <mxCell id="0" />
        <mxCell id="1" parent="0" />
        <mxCell id="n2HK4dKVuAgLni7QQ9FL-14" value="AuthUser" style="shape=table;startSize=30;container=1;collapsible=1;childLayout=tableLayout;fixedRows=1;rowLines=0;fontStyle=1;align=center;resizeLast=1;html=1;fillColor=#dae8fc;strokeColor=#6c8ebf;" parent="1" vertex="1">
          <mxGeometry x="10" y="270" width="180" height="240" as="geometry" />
        </mxCell>
        <mxCell id="n2HK4dKVuAgLni7QQ9FL-15" value="" style="shape=tableRow;horizontal=0;startSize=0;swimlaneHead=0;swimlaneBody=0;fillColor=none;collapsible=0;dropTarget=0;points=[[0,0.5],[1,0.5]];portConstraint=eastwest;top=0;left=0;right=0;bottom=1;" parent="n2HK4dKVuAgLni7QQ9FL-14" vertex="1">
          <mxGeometry y="30" width="180" height="30" as="geometry" />
        </mxCell>
        <mxCell id="n2HK4dKVuAgLni7QQ9FL-16" value="PK" style="shape=partialRectangle;connectable=0;top=0;left=0;bottom=0;right=0;fontStyle=1;overflow=hidden;whiteSpace=wrap;html=1;" parent="n2HK4dKVuAgLni7QQ9FL-15" vertex="1">
          <mxGeometry width="30" height="30" as="geometry">
            <mxRectangle width="30" height="30" as="alternateBounds" />
          </mxGeometry>
        </mxCell>
        <mxCell id="n2HK4dKVuAgLni7QQ9FL-17" value="id" style="shape=partialRectangle;connectable=0;top=0;left=0;bottom=0;right=0;align=left;spacingLeft=6;fontStyle=5;overflow=hidden;whiteSpace=wrap;html=1;" parent="n2HK4dKVuAgLni7QQ9FL-15" vertex="1">
          <mxGeometry x="30" width="150" height="30" as="geometry">
            <mxRectangle width="150" height="30" as="alternateBounds" />
          </mxGeometry>
        </mxCell>
        <mxCell id="n2HK4dKVuAgLni7QQ9FL-18" value="" style="shape=tableRow;horizontal=0;startSize=0;swimlaneHead=0;swimlaneBody=0;fillColor=none;collapsible=0;dropTarget=0;points=[[0,0.5],[1,0.5]];portConstraint=eastwest;top=0;left=0;right=0;bottom=0;" parent="n2HK4dKVuAgLni7QQ9FL-14" vertex="1">
          <mxGeometry y="60" width="180" height="30" as="geometry" />
        </mxCell>
        <mxCell id="n2HK4dKVuAgLni7QQ9FL-19" value="" style="shape=partialRectangle;connectable=0;top=0;left=0;bottom=0;right=0;editable=1;overflow=hidden;whiteSpace=wrap;html=1;" parent="n2HK4dKVuAgLni7QQ9FL-18" vertex="1">
          <mxGeometry width="30" height="30" as="geometry">
            <mxRectangle width="30" height="30" as="alternateBounds" />
          </mxGeometry>
        </mxCell>
        <mxCell id="n2HK4dKVuAgLni7QQ9FL-20" value="firstName" style="shape=partialRectangle;connectable=0;top=0;left=0;bottom=0;right=0;align=left;spacingLeft=6;overflow=hidden;whiteSpace=wrap;html=1;" parent="n2HK4dKVuAgLni7QQ9FL-18" vertex="1">
          <mxGeometry x="30" width="150" height="30" as="geometry">
            <mxRectangle width="150" height="30" as="alternateBounds" />
          </mxGeometry>
        </mxCell>
        <mxCell id="n2HK4dKVuAgLni7QQ9FL-21" value="" style="shape=tableRow;horizontal=0;startSize=0;swimlaneHead=0;swimlaneBody=0;fillColor=none;collapsible=0;dropTarget=0;points=[[0,0.5],[1,0.5]];portConstraint=eastwest;top=0;left=0;right=0;bottom=0;" parent="n2HK4dKVuAgLni7QQ9FL-14" vertex="1">
          <mxGeometry y="90" width="180" height="30" as="geometry" />
        </mxCell>
        <mxCell id="n2HK4dKVuAgLni7QQ9FL-22" value="" style="shape=partialRectangle;connectable=0;top=0;left=0;bottom=0;right=0;editable=1;overflow=hidden;whiteSpace=wrap;html=1;" parent="n2HK4dKVuAgLni7QQ9FL-21" vertex="1">
          <mxGeometry width="30" height="30" as="geometry">
            <mxRectangle width="30" height="30" as="alternateBounds" />
          </mxGeometry>
        </mxCell>
        <mxCell id="n2HK4dKVuAgLni7QQ9FL-23" value="lastName" style="shape=partialRectangle;connectable=0;top=0;left=0;bottom=0;right=0;align=left;spacingLeft=6;overflow=hidden;whiteSpace=wrap;html=1;" parent="n2HK4dKVuAgLni7QQ9FL-21" vertex="1">
          <mxGeometry x="30" width="150" height="30" as="geometry">
            <mxRectangle width="150" height="30" as="alternateBounds" />
          </mxGeometry>
        </mxCell>
        <mxCell id="n2HK4dKVuAgLni7QQ9FL-24" value="" style="shape=tableRow;horizontal=0;startSize=0;swimlaneHead=0;swimlaneBody=0;fillColor=none;collapsible=0;dropTarget=0;points=[[0,0.5],[1,0.5]];portConstraint=eastwest;top=0;left=0;right=0;bottom=0;" parent="n2HK4dKVuAgLni7QQ9FL-14" vertex="1">
          <mxGeometry y="120" width="180" height="30" as="geometry" />
        </mxCell>
        <mxCell id="n2HK4dKVuAgLni7QQ9FL-25" value="" style="shape=partialRectangle;connectable=0;top=0;left=0;bottom=0;right=0;editable=1;overflow=hidden;whiteSpace=wrap;html=1;" parent="n2HK4dKVuAgLni7QQ9FL-24" vertex="1">
          <mxGeometry width="30" height="30" as="geometry">
            <mxRectangle width="30" height="30" as="alternateBounds" />
          </mxGeometry>
        </mxCell>
        <mxCell id="n2HK4dKVuAgLni7QQ9FL-26" value="email" style="shape=partialRectangle;connectable=0;top=0;left=0;bottom=0;right=0;align=left;spacingLeft=6;overflow=hidden;whiteSpace=wrap;html=1;" parent="n2HK4dKVuAgLni7QQ9FL-24" vertex="1">
          <mxGeometry x="30" width="150" height="30" as="geometry">
            <mxRectangle width="150" height="30" as="alternateBounds" />
          </mxGeometry>
        </mxCell>
        <mxCell id="n2HK4dKVuAgLni7QQ9FL-29" value="" style="shape=tableRow;horizontal=0;startSize=0;swimlaneHead=0;swimlaneBody=0;fillColor=none;collapsible=0;dropTarget=0;points=[[0,0.5],[1,0.5]];portConstraint=eastwest;top=0;left=0;right=0;bottom=0;" parent="n2HK4dKVuAgLni7QQ9FL-14" vertex="1">
          <mxGeometry y="150" width="180" height="30" as="geometry" />
        </mxCell>
        <mxCell id="n2HK4dKVuAgLni7QQ9FL-30" value="" style="shape=partialRectangle;connectable=0;top=0;left=0;bottom=0;right=0;editable=1;overflow=hidden;" parent="n2HK4dKVuAgLni7QQ9FL-29" vertex="1">
          <mxGeometry width="30" height="30" as="geometry">
            <mxRectangle width="30" height="30" as="alternateBounds" />
          </mxGeometry>
        </mxCell>
        <mxCell id="n2HK4dKVuAgLni7QQ9FL-31" value="role" style="shape=partialRectangle;connectable=0;top=0;left=0;bottom=0;right=0;align=left;spacingLeft=6;overflow=hidden;" parent="n2HK4dKVuAgLni7QQ9FL-29" vertex="1">
          <mxGeometry x="30" width="150" height="30" as="geometry">
            <mxRectangle width="150" height="30" as="alternateBounds" />
          </mxGeometry>
        </mxCell>
        <mxCell id="n2HK4dKVuAgLni7QQ9FL-32" value="" style="shape=tableRow;horizontal=0;startSize=0;swimlaneHead=0;swimlaneBody=0;fillColor=none;collapsible=0;dropTarget=0;points=[[0,0.5],[1,0.5]];portConstraint=eastwest;top=0;left=0;right=0;bottom=0;" parent="n2HK4dKVuAgLni7QQ9FL-14" vertex="1">
          <mxGeometry y="180" width="180" height="30" as="geometry" />
        </mxCell>
        <mxCell id="n2HK4dKVuAgLni7QQ9FL-33" value="" style="shape=partialRectangle;connectable=0;top=0;left=0;bottom=0;right=0;editable=1;overflow=hidden;" parent="n2HK4dKVuAgLni7QQ9FL-32" vertex="1">
          <mxGeometry width="30" height="30" as="geometry">
            <mxRectangle width="30" height="30" as="alternateBounds" />
          </mxGeometry>
        </mxCell>
        <mxCell id="n2HK4dKVuAgLni7QQ9FL-34" value="password" style="shape=partialRectangle;connectable=0;top=0;left=0;bottom=0;right=0;align=left;spacingLeft=6;overflow=hidden;" parent="n2HK4dKVuAgLni7QQ9FL-32" vertex="1">
          <mxGeometry x="30" width="150" height="30" as="geometry">
            <mxRectangle width="150" height="30" as="alternateBounds" />
          </mxGeometry>
        </mxCell>
        <mxCell id="n2HK4dKVuAgLni7QQ9FL-38" value="" style="shape=tableRow;horizontal=0;startSize=0;swimlaneHead=0;swimlaneBody=0;fillColor=none;collapsible=0;dropTarget=0;points=[[0,0.5],[1,0.5]];portConstraint=eastwest;top=0;left=0;right=0;bottom=0;" parent="n2HK4dKVuAgLni7QQ9FL-14" vertex="1">
          <mxGeometry y="210" width="180" height="30" as="geometry" />
        </mxCell>
        <mxCell id="n2HK4dKVuAgLni7QQ9FL-39" value="" style="shape=partialRectangle;connectable=0;top=0;left=0;bottom=0;right=0;editable=1;overflow=hidden;" parent="n2HK4dKVuAgLni7QQ9FL-38" vertex="1">
          <mxGeometry width="30" height="30" as="geometry">
            <mxRectangle width="30" height="30" as="alternateBounds" />
          </mxGeometry>
        </mxCell>
        <mxCell id="n2HK4dKVuAgLni7QQ9FL-40" value="createdDateTime" style="shape=partialRectangle;connectable=0;top=0;left=0;bottom=0;right=0;align=left;spacingLeft=6;overflow=hidden;" parent="n2HK4dKVuAgLni7QQ9FL-38" vertex="1">
          <mxGeometry x="30" width="150" height="30" as="geometry">
            <mxRectangle width="150" height="30" as="alternateBounds" />
          </mxGeometry>
        </mxCell>
        <mxCell id="n2HK4dKVuAgLni7QQ9FL-41" value="RefreshToken" style="shape=table;startSize=30;container=1;collapsible=1;childLayout=tableLayout;fixedRows=1;rowLines=0;fontStyle=1;align=center;resizeLast=1;html=1;fillColor=#dae8fc;strokeColor=#6c8ebf;" parent="1" vertex="1">
          <mxGeometry x="10" y="40" width="180" height="120" as="geometry" />
        </mxCell>
        <mxCell id="n2HK4dKVuAgLni7QQ9FL-42" value="" style="shape=tableRow;horizontal=0;startSize=0;swimlaneHead=0;swimlaneBody=0;fillColor=none;collapsible=0;dropTarget=0;points=[[0,0.5],[1,0.5]];portConstraint=eastwest;top=0;left=0;right=0;bottom=1;" parent="n2HK4dKVuAgLni7QQ9FL-41" vertex="1">
          <mxGeometry y="30" width="180" height="30" as="geometry" />
        </mxCell>
        <mxCell id="n2HK4dKVuAgLni7QQ9FL-43" value="PK" style="shape=partialRectangle;connectable=0;top=0;left=0;bottom=0;right=0;fontStyle=1;overflow=hidden;whiteSpace=wrap;html=1;" parent="n2HK4dKVuAgLni7QQ9FL-42" vertex="1">
          <mxGeometry width="30" height="30" as="geometry">
            <mxRectangle width="30" height="30" as="alternateBounds" />
          </mxGeometry>
        </mxCell>
        <mxCell id="n2HK4dKVuAgLni7QQ9FL-44" value="id" style="shape=partialRectangle;connectable=0;top=0;left=0;bottom=0;right=0;align=left;spacingLeft=6;fontStyle=5;overflow=hidden;whiteSpace=wrap;html=1;" parent="n2HK4dKVuAgLni7QQ9FL-42" vertex="1">
          <mxGeometry x="30" width="150" height="30" as="geometry">
            <mxRectangle width="150" height="30" as="alternateBounds" />
          </mxGeometry>
        </mxCell>
        <mxCell id="n2HK4dKVuAgLni7QQ9FL-54" value="" style="shape=tableRow;horizontal=0;startSize=0;swimlaneHead=0;swimlaneBody=0;fillColor=none;collapsible=0;dropTarget=0;points=[[0,0.5],[1,0.5]];portConstraint=eastwest;top=0;left=0;right=0;bottom=0;" parent="n2HK4dKVuAgLni7QQ9FL-41" vertex="1">
          <mxGeometry y="60" width="180" height="30" as="geometry" />
        </mxCell>
        <mxCell id="n2HK4dKVuAgLni7QQ9FL-55" value="FK" style="shape=partialRectangle;connectable=0;top=0;left=0;bottom=0;right=0;fontStyle=0;overflow=hidden;whiteSpace=wrap;html=1;" parent="n2HK4dKVuAgLni7QQ9FL-54" vertex="1">
          <mxGeometry width="30" height="30" as="geometry">
            <mxRectangle width="30" height="30" as="alternateBounds" />
          </mxGeometry>
        </mxCell>
        <mxCell id="n2HK4dKVuAgLni7QQ9FL-56" value="authUserId" style="shape=partialRectangle;connectable=0;top=0;left=0;bottom=0;right=0;align=left;spacingLeft=6;fontStyle=0;overflow=hidden;whiteSpace=wrap;html=1;" parent="n2HK4dKVuAgLni7QQ9FL-54" vertex="1">
          <mxGeometry x="30" width="150" height="30" as="geometry">
            <mxRectangle width="150" height="30" as="alternateBounds" />
          </mxGeometry>
        </mxCell>
        <mxCell id="n2HK4dKVuAgLni7QQ9FL-48" value="" style="shape=tableRow;horizontal=0;startSize=0;swimlaneHead=0;swimlaneBody=0;fillColor=none;collapsible=0;dropTarget=0;points=[[0,0.5],[1,0.5]];portConstraint=eastwest;top=0;left=0;right=0;bottom=0;" parent="n2HK4dKVuAgLni7QQ9FL-41" vertex="1">
          <mxGeometry y="90" width="180" height="30" as="geometry" />
        </mxCell>
        <mxCell id="n2HK4dKVuAgLni7QQ9FL-49" value="" style="shape=partialRectangle;connectable=0;top=0;left=0;bottom=0;right=0;editable=1;overflow=hidden;whiteSpace=wrap;html=1;" parent="n2HK4dKVuAgLni7QQ9FL-48" vertex="1">
          <mxGeometry width="30" height="30" as="geometry">
            <mxRectangle width="30" height="30" as="alternateBounds" />
          </mxGeometry>
        </mxCell>
        <mxCell id="n2HK4dKVuAgLni7QQ9FL-50" value="createdDateTime" style="shape=partialRectangle;connectable=0;top=0;left=0;bottom=0;right=0;align=left;spacingLeft=6;overflow=hidden;whiteSpace=wrap;html=1;" parent="n2HK4dKVuAgLni7QQ9FL-48" vertex="1">
          <mxGeometry x="30" width="150" height="30" as="geometry">
            <mxRectangle width="150" height="30" as="alternateBounds" />
          </mxGeometry>
        </mxCell>
        <mxCell id="n2HK4dKVuAgLni7QQ9FL-59" value="" style="edgeStyle=entityRelationEdgeStyle;fontSize=12;html=1;endArrow=ERzeroToMany;startArrow=ERmandOne;rounded=0;exitX=1;exitY=0.5;exitDx=0;exitDy=0;entryX=1;entryY=0.5;entryDx=0;entryDy=0;fillColor=#dae8fc;strokeColor=#6c8ebf;" parent="1" source="n2HK4dKVuAgLni7QQ9FL-15" target="n2HK4dKVuAgLni7QQ9FL-54" edge="1">
          <mxGeometry width="100" height="100" relative="1" as="geometry">
            <mxPoint x="260" y="230" as="sourcePoint" />
            <mxPoint x="360" y="130" as="targetPoint" />
          </mxGeometry>
        </mxCell>
        <mxCell id="n2HK4dKVuAgLni7QQ9FL-60" value="Book" style="shape=table;startSize=30;container=1;collapsible=1;childLayout=tableLayout;fixedRows=1;rowLines=0;fontStyle=1;align=center;resizeLast=1;html=1;fillColor=#dae8fc;strokeColor=#6c8ebf;" parent="1" vertex="1">
          <mxGeometry x="690" y="250" width="230" height="360" as="geometry" />
        </mxCell>
        <mxCell id="n2HK4dKVuAgLni7QQ9FL-61" value="" style="shape=tableRow;horizontal=0;startSize=0;swimlaneHead=0;swimlaneBody=0;fillColor=none;collapsible=0;dropTarget=0;points=[[0,0.5],[1,0.5]];portConstraint=eastwest;top=0;left=0;right=0;bottom=1;strokeWidth=2;" parent="n2HK4dKVuAgLni7QQ9FL-60" vertex="1">
          <mxGeometry y="30" width="230" height="30" as="geometry" />
        </mxCell>
        <mxCell id="n2HK4dKVuAgLni7QQ9FL-62" value="PK" style="shape=partialRectangle;connectable=0;top=0;left=0;bottom=0;right=0;fontStyle=1;overflow=hidden;whiteSpace=wrap;html=1;" parent="n2HK4dKVuAgLni7QQ9FL-61" vertex="1">
          <mxGeometry width="50" height="30" as="geometry">
            <mxRectangle width="50" height="30" as="alternateBounds" />
          </mxGeometry>
        </mxCell>
        <mxCell id="n2HK4dKVuAgLni7QQ9FL-63" value="id" style="shape=partialRectangle;connectable=0;top=0;left=0;bottom=0;right=0;align=left;spacingLeft=6;fontStyle=5;overflow=hidden;whiteSpace=wrap;html=1;" parent="n2HK4dKVuAgLni7QQ9FL-61" vertex="1">
          <mxGeometry x="50" width="180" height="30" as="geometry">
            <mxRectangle width="180" height="30" as="alternateBounds" />
          </mxGeometry>
        </mxCell>
        <mxCell id="n2HK4dKVuAgLni7QQ9FL-64" value="" style="shape=tableRow;horizontal=0;startSize=0;swimlaneHead=0;swimlaneBody=0;fillColor=none;collapsible=0;dropTarget=0;points=[[0,0.5],[1,0.5]];portConstraint=eastwest;top=0;left=0;right=0;bottom=0;perimeterSpacing=0;strokeWidth=1;fontStyle=1" parent="n2HK4dKVuAgLni7QQ9FL-60" vertex="1">
          <mxGeometry y="60" width="230" height="30" as="geometry" />
        </mxCell>
        <mxCell id="n2HK4dKVuAgLni7QQ9FL-65" value="" style="shape=partialRectangle;connectable=0;top=0;left=0;bottom=0;right=0;editable=1;overflow=hidden;whiteSpace=wrap;html=1;" parent="n2HK4dKVuAgLni7QQ9FL-64" vertex="1">
          <mxGeometry width="50" height="30" as="geometry">
            <mxRectangle width="50" height="30" as="alternateBounds" />
          </mxGeometry>
        </mxCell>
        <mxCell id="n2HK4dKVuAgLni7QQ9FL-66" value="ISBN13" style="shape=partialRectangle;connectable=0;top=0;left=0;bottom=0;right=0;align=left;spacingLeft=6;overflow=hidden;whiteSpace=wrap;html=1;" parent="n2HK4dKVuAgLni7QQ9FL-64" vertex="1">
          <mxGeometry x="50" width="180" height="30" as="geometry">
            <mxRectangle width="180" height="30" as="alternateBounds" />
          </mxGeometry>
        </mxCell>
        <mxCell id="n2HK4dKVuAgLni7QQ9FL-67" value="" style="shape=tableRow;horizontal=0;startSize=0;swimlaneHead=0;swimlaneBody=0;fillColor=none;collapsible=0;dropTarget=0;points=[[0,0.5],[1,0.5]];portConstraint=eastwest;top=0;left=0;right=0;bottom=0;" parent="n2HK4dKVuAgLni7QQ9FL-60" vertex="1">
          <mxGeometry y="90" width="230" height="30" as="geometry" />
        </mxCell>
        <mxCell id="n2HK4dKVuAgLni7QQ9FL-68" value="" style="shape=partialRectangle;connectable=0;top=0;left=0;bottom=0;right=0;editable=1;overflow=hidden;whiteSpace=wrap;html=1;" parent="n2HK4dKVuAgLni7QQ9FL-67" vertex="1">
          <mxGeometry width="50" height="30" as="geometry">
            <mxRectangle width="50" height="30" as="alternateBounds" />
          </mxGeometry>
        </mxCell>
        <mxCell id="n2HK4dKVuAgLni7QQ9FL-69" value="ISBN10" style="shape=partialRectangle;connectable=0;top=0;left=0;bottom=0;right=0;align=left;spacingLeft=6;overflow=hidden;whiteSpace=wrap;html=1;" parent="n2HK4dKVuAgLni7QQ9FL-67" vertex="1">
          <mxGeometry x="50" width="180" height="30" as="geometry">
            <mxRectangle width="180" height="30" as="alternateBounds" />
          </mxGeometry>
        </mxCell>
        <mxCell id="n2HK4dKVuAgLni7QQ9FL-73" value="" style="shape=tableRow;horizontal=0;startSize=0;swimlaneHead=0;swimlaneBody=0;fillColor=none;collapsible=0;dropTarget=0;points=[[0,0.5],[1,0.5]];portConstraint=eastwest;top=0;left=0;right=0;bottom=0;" parent="n2HK4dKVuAgLni7QQ9FL-60" vertex="1">
          <mxGeometry y="120" width="230" height="30" as="geometry" />
        </mxCell>
        <mxCell id="n2HK4dKVuAgLni7QQ9FL-74" value="" style="shape=partialRectangle;connectable=0;top=0;left=0;bottom=0;right=0;editable=1;overflow=hidden;" parent="n2HK4dKVuAgLni7QQ9FL-73" vertex="1">
          <mxGeometry width="50" height="30" as="geometry">
            <mxRectangle width="50" height="30" as="alternateBounds" />
          </mxGeometry>
        </mxCell>
        <mxCell id="n2HK4dKVuAgLni7QQ9FL-75" value="title" style="shape=partialRectangle;connectable=0;top=0;left=0;bottom=0;right=0;align=left;spacingLeft=6;overflow=hidden;labelBackgroundColor=none;" parent="n2HK4dKVuAgLni7QQ9FL-73" vertex="1">
          <mxGeometry x="50" width="180" height="30" as="geometry">
            <mxRectangle width="180" height="30" as="alternateBounds" />
          </mxGeometry>
        </mxCell>
        <mxCell id="n2HK4dKVuAgLni7QQ9FL-79" value="" style="shape=tableRow;horizontal=0;startSize=0;swimlaneHead=0;swimlaneBody=0;fillColor=none;collapsible=0;dropTarget=0;points=[[0,0.5],[1,0.5]];portConstraint=eastwest;top=0;left=0;right=0;bottom=0;" parent="n2HK4dKVuAgLni7QQ9FL-60" vertex="1">
          <mxGeometry y="150" width="230" height="30" as="geometry" />
        </mxCell>
        <mxCell id="n2HK4dKVuAgLni7QQ9FL-80" value="" style="shape=partialRectangle;connectable=0;top=0;left=0;bottom=0;right=0;editable=1;overflow=hidden;" parent="n2HK4dKVuAgLni7QQ9FL-79" vertex="1">
          <mxGeometry width="50" height="30" as="geometry">
            <mxRectangle width="50" height="30" as="alternateBounds" />
          </mxGeometry>
        </mxCell>
        <mxCell id="n2HK4dKVuAgLni7QQ9FL-81" value="subtitle" style="shape=partialRectangle;connectable=0;top=0;left=0;bottom=0;right=0;align=left;spacingLeft=6;overflow=hidden;" parent="n2HK4dKVuAgLni7QQ9FL-79" vertex="1">
          <mxGeometry x="50" width="180" height="30" as="geometry">
            <mxRectangle width="180" height="30" as="alternateBounds" />
          </mxGeometry>
        </mxCell>
        <mxCell id="n2HK4dKVuAgLni7QQ9FL-107" value="" style="shape=tableRow;horizontal=0;startSize=0;swimlaneHead=0;swimlaneBody=0;fillColor=none;collapsible=0;dropTarget=0;points=[[0,0.5],[1,0.5]];portConstraint=eastwest;top=0;left=0;right=0;bottom=0;" parent="n2HK4dKVuAgLni7QQ9FL-60" vertex="1">
          <mxGeometry y="180" width="230" height="30" as="geometry" />
        </mxCell>
        <mxCell id="n2HK4dKVuAgLni7QQ9FL-108" value="Enum" style="shape=partialRectangle;connectable=0;top=0;left=0;bottom=0;right=0;editable=1;overflow=hidden;" parent="n2HK4dKVuAgLni7QQ9FL-107" vertex="1">
          <mxGeometry width="50" height="30" as="geometry">
            <mxRectangle width="50" height="30" as="alternateBounds" />
          </mxGeometry>
        </mxCell>
        <mxCell id="n2HK4dKVuAgLni7QQ9FL-109" value="thumbnail" style="shape=partialRectangle;connectable=0;top=0;left=0;bottom=0;right=0;align=left;spacingLeft=6;overflow=hidden;" parent="n2HK4dKVuAgLni7QQ9FL-107" vertex="1">
          <mxGeometry x="50" width="180" height="30" as="geometry">
            <mxRectangle width="180" height="30" as="alternateBounds" />
          </mxGeometry>
        </mxCell>
        <mxCell id="n2HK4dKVuAgLni7QQ9FL-110" value="" style="shape=tableRow;horizontal=0;startSize=0;swimlaneHead=0;swimlaneBody=0;fillColor=none;collapsible=0;dropTarget=0;points=[[0,0.5],[1,0.5]];portConstraint=eastwest;top=0;left=0;right=0;bottom=0;" parent="n2HK4dKVuAgLni7QQ9FL-60" vertex="1">
          <mxGeometry y="210" width="230" height="30" as="geometry" />
        </mxCell>
        <mxCell id="n2HK4dKVuAgLni7QQ9FL-111" value="" style="shape=partialRectangle;connectable=0;top=0;left=0;bottom=0;right=0;editable=1;overflow=hidden;" parent="n2HK4dKVuAgLni7QQ9FL-110" vertex="1">
          <mxGeometry width="50" height="30" as="geometry">
            <mxRectangle width="50" height="30" as="alternateBounds" />
          </mxGeometry>
        </mxCell>
        <mxCell id="n2HK4dKVuAgLni7QQ9FL-112" value="description" style="shape=partialRectangle;connectable=0;top=0;left=0;bottom=0;right=0;align=left;spacingLeft=6;overflow=hidden;" parent="n2HK4dKVuAgLni7QQ9FL-110" vertex="1">
          <mxGeometry x="50" width="180" height="30" as="geometry">
            <mxRectangle width="180" height="30" as="alternateBounds" />
          </mxGeometry>
        </mxCell>
        <mxCell id="n2HK4dKVuAgLni7QQ9FL-113" value="" style="shape=tableRow;horizontal=0;startSize=0;swimlaneHead=0;swimlaneBody=0;fillColor=none;collapsible=0;dropTarget=0;points=[[0,0.5],[1,0.5]];portConstraint=eastwest;top=0;left=0;right=0;bottom=0;" parent="n2HK4dKVuAgLni7QQ9FL-60" vertex="1">
          <mxGeometry y="240" width="230" height="30" as="geometry" />
        </mxCell>
        <mxCell id="n2HK4dKVuAgLni7QQ9FL-114" value="" style="shape=partialRectangle;connectable=0;top=0;left=0;bottom=0;right=0;editable=1;overflow=hidden;" parent="n2HK4dKVuAgLni7QQ9FL-113" vertex="1">
          <mxGeometry width="50" height="30" as="geometry">
            <mxRectangle width="50" height="30" as="alternateBounds" />
          </mxGeometry>
        </mxCell>
        <mxCell id="n2HK4dKVuAgLni7QQ9FL-115" value="publishedYear" style="shape=partialRectangle;connectable=0;top=0;left=0;bottom=0;right=0;align=left;spacingLeft=6;overflow=hidden;" parent="n2HK4dKVuAgLni7QQ9FL-113" vertex="1">
          <mxGeometry x="50" width="180" height="30" as="geometry">
            <mxRectangle width="180" height="30" as="alternateBounds" />
          </mxGeometry>
        </mxCell>
        <mxCell id="n2HK4dKVuAgLni7QQ9FL-104" value="" style="shape=tableRow;horizontal=0;startSize=0;swimlaneHead=0;swimlaneBody=0;fillColor=none;collapsible=0;dropTarget=0;points=[[0,0.5],[1,0.5]];portConstraint=eastwest;top=0;left=0;right=0;bottom=0;" parent="n2HK4dKVuAgLni7QQ9FL-60" vertex="1">
          <mxGeometry y="270" width="230" height="30" as="geometry" />
        </mxCell>
        <mxCell id="n2HK4dKVuAgLni7QQ9FL-105" value="" style="shape=partialRectangle;connectable=0;top=0;left=0;bottom=0;right=0;editable=1;overflow=hidden;" parent="n2HK4dKVuAgLni7QQ9FL-104" vertex="1">
          <mxGeometry width="50" height="30" as="geometry">
            <mxRectangle width="50" height="30" as="alternateBounds" />
          </mxGeometry>
        </mxCell>
        <mxCell id="n2HK4dKVuAgLni7QQ9FL-106" value="averageRating" style="shape=partialRectangle;connectable=0;top=0;left=0;bottom=0;right=0;align=left;spacingLeft=6;overflow=hidden;" parent="n2HK4dKVuAgLni7QQ9FL-104" vertex="1">
          <mxGeometry x="50" width="180" height="30" as="geometry">
            <mxRectangle width="180" height="30" as="alternateBounds" />
          </mxGeometry>
        </mxCell>
        <mxCell id="n2HK4dKVuAgLni7QQ9FL-95" value="" style="shape=tableRow;horizontal=0;startSize=0;swimlaneHead=0;swimlaneBody=0;fillColor=none;collapsible=0;dropTarget=0;points=[[0,0.5],[1,0.5]];portConstraint=eastwest;top=0;left=0;right=0;bottom=0;" parent="n2HK4dKVuAgLni7QQ9FL-60" vertex="1">
          <mxGeometry y="300" width="230" height="30" as="geometry" />
        </mxCell>
        <mxCell id="n2HK4dKVuAgLni7QQ9FL-96" value="" style="shape=partialRectangle;connectable=0;top=0;left=0;bottom=0;right=0;editable=1;overflow=hidden;" parent="n2HK4dKVuAgLni7QQ9FL-95" vertex="1">
          <mxGeometry width="50" height="30" as="geometry">
            <mxRectangle width="50" height="30" as="alternateBounds" />
          </mxGeometry>
        </mxCell>
        <mxCell id="n2HK4dKVuAgLni7QQ9FL-97" value="numPages" style="shape=partialRectangle;connectable=0;top=0;left=0;bottom=0;right=0;align=left;spacingLeft=6;overflow=hidden;" parent="n2HK4dKVuAgLni7QQ9FL-95" vertex="1">
          <mxGeometry x="50" width="180" height="30" as="geometry">
            <mxRectangle width="180" height="30" as="alternateBounds" />
          </mxGeometry>
        </mxCell>
        <mxCell id="n2HK4dKVuAgLni7QQ9FL-101" value="" style="shape=tableRow;horizontal=0;startSize=0;swimlaneHead=0;swimlaneBody=0;fillColor=none;collapsible=0;dropTarget=0;points=[[0,0.5],[1,0.5]];portConstraint=eastwest;top=0;left=0;right=0;bottom=0;" parent="n2HK4dKVuAgLni7QQ9FL-60" vertex="1">
          <mxGeometry y="330" width="230" height="30" as="geometry" />
        </mxCell>
        <mxCell id="n2HK4dKVuAgLni7QQ9FL-102" value="" style="shape=partialRectangle;connectable=0;top=0;left=0;bottom=0;right=0;editable=1;overflow=hidden;" parent="n2HK4dKVuAgLni7QQ9FL-101" vertex="1">
          <mxGeometry width="50" height="30" as="geometry">
            <mxRectangle width="50" height="30" as="alternateBounds" />
          </mxGeometry>
        </mxCell>
        <mxCell id="n2HK4dKVuAgLni7QQ9FL-103" value="ratingsCount" style="shape=partialRectangle;connectable=0;top=0;left=0;bottom=0;right=0;align=left;spacingLeft=6;overflow=hidden;" parent="n2HK4dKVuAgLni7QQ9FL-101" vertex="1">
          <mxGeometry x="50" width="180" height="30" as="geometry">
            <mxRectangle width="180" height="30" as="alternateBounds" />
          </mxGeometry>
        </mxCell>
        <mxCell id="n2HK4dKVuAgLni7QQ9FL-116" value="AuthUserBookComment" style="shape=table;startSize=30;container=1;collapsible=1;childLayout=tableLayout;fixedRows=1;rowLines=0;fontStyle=1;align=center;resizeLast=1;html=1;fillColor=#dae8fc;strokeColor=#6c8ebf;" parent="1" vertex="1">
          <mxGeometry x="310" y="190" width="180" height="180" as="geometry" />
        </mxCell>
        <mxCell id="n2HK4dKVuAgLni7QQ9FL-117" value="" style="shape=tableRow;horizontal=0;startSize=0;swimlaneHead=0;swimlaneBody=0;fillColor=none;collapsible=0;dropTarget=0;points=[[0,0.5],[1,0.5]];portConstraint=eastwest;top=0;left=0;right=0;bottom=1;" parent="n2HK4dKVuAgLni7QQ9FL-116" vertex="1">
          <mxGeometry y="30" width="180" height="30" as="geometry" />
        </mxCell>
        <mxCell id="n2HK4dKVuAgLni7QQ9FL-118" value="PK" style="shape=partialRectangle;connectable=0;top=0;left=0;bottom=0;right=0;fontStyle=1;overflow=hidden;whiteSpace=wrap;html=1;" parent="n2HK4dKVuAgLni7QQ9FL-117" vertex="1">
          <mxGeometry width="30" height="30" as="geometry">
            <mxRectangle width="30" height="30" as="alternateBounds" />
          </mxGeometry>
        </mxCell>
        <mxCell id="n2HK4dKVuAgLni7QQ9FL-119" value="id" style="shape=partialRectangle;connectable=0;top=0;left=0;bottom=0;right=0;align=left;spacingLeft=6;fontStyle=5;overflow=hidden;whiteSpace=wrap;html=1;strokeWidth=1;gradientColor=none;perimeterSpacing=1;" parent="n2HK4dKVuAgLni7QQ9FL-117" vertex="1">
          <mxGeometry x="30" width="150" height="30" as="geometry">
            <mxRectangle width="150" height="30" as="alternateBounds" />
          </mxGeometry>
        </mxCell>
        <mxCell id="n2HK4dKVuAgLni7QQ9FL-120" value="" style="shape=tableRow;horizontal=0;startSize=0;swimlaneHead=0;swimlaneBody=0;fillColor=none;collapsible=0;dropTarget=0;points=[[0,0.5],[1,0.5]];portConstraint=eastwest;top=0;left=0;right=0;bottom=0;" parent="n2HK4dKVuAgLni7QQ9FL-116" vertex="1">
          <mxGeometry y="60" width="180" height="30" as="geometry" />
        </mxCell>
        <mxCell id="n2HK4dKVuAgLni7QQ9FL-121" value="FK" style="shape=partialRectangle;connectable=0;top=0;left=0;bottom=0;right=0;editable=1;overflow=hidden;whiteSpace=wrap;html=1;" parent="n2HK4dKVuAgLni7QQ9FL-120" vertex="1">
          <mxGeometry width="30" height="30" as="geometry">
            <mxRectangle width="30" height="30" as="alternateBounds" />
          </mxGeometry>
        </mxCell>
        <mxCell id="n2HK4dKVuAgLni7QQ9FL-122" value="authUserId" style="shape=partialRectangle;connectable=0;top=0;left=0;bottom=0;right=0;align=left;spacingLeft=6;overflow=hidden;whiteSpace=wrap;html=1;strokeWidth=2;strokeColor=inherit;" parent="n2HK4dKVuAgLni7QQ9FL-120" vertex="1">
          <mxGeometry x="30" width="150" height="30" as="geometry">
            <mxRectangle width="150" height="30" as="alternateBounds" />
          </mxGeometry>
        </mxCell>
        <mxCell id="n2HK4dKVuAgLni7QQ9FL-123" value="" style="shape=tableRow;horizontal=0;startSize=0;swimlaneHead=0;swimlaneBody=0;fillColor=none;collapsible=0;dropTarget=0;points=[[0,0.5],[1,0.5]];portConstraint=eastwest;top=0;left=0;right=0;bottom=0;" parent="n2HK4dKVuAgLni7QQ9FL-116" vertex="1">
          <mxGeometry y="90" width="180" height="30" as="geometry" />
        </mxCell>
        <mxCell id="n2HK4dKVuAgLni7QQ9FL-124" value="FK" style="shape=partialRectangle;connectable=0;top=0;left=0;bottom=0;right=0;editable=1;overflow=hidden;whiteSpace=wrap;html=1;" parent="n2HK4dKVuAgLni7QQ9FL-123" vertex="1">
          <mxGeometry width="30" height="30" as="geometry">
            <mxRectangle width="30" height="30" as="alternateBounds" />
          </mxGeometry>
        </mxCell>
        <mxCell id="n2HK4dKVuAgLni7QQ9FL-125" value="bookId" style="shape=partialRectangle;connectable=0;top=0;left=0;bottom=0;right=0;align=left;spacingLeft=6;overflow=hidden;whiteSpace=wrap;html=1;" parent="n2HK4dKVuAgLni7QQ9FL-123" vertex="1">
          <mxGeometry x="30" width="150" height="30" as="geometry">
            <mxRectangle width="150" height="30" as="alternateBounds" />
          </mxGeometry>
        </mxCell>
        <mxCell id="n2HK4dKVuAgLni7QQ9FL-129" value="" style="shape=tableRow;horizontal=0;startSize=0;swimlaneHead=0;swimlaneBody=0;fillColor=none;collapsible=0;dropTarget=0;points=[[0,0.5],[1,0.5]];portConstraint=eastwest;top=0;left=0;right=0;bottom=0;" parent="n2HK4dKVuAgLni7QQ9FL-116" vertex="1">
          <mxGeometry y="120" width="180" height="30" as="geometry" />
        </mxCell>
        <mxCell id="n2HK4dKVuAgLni7QQ9FL-130" value="" style="shape=partialRectangle;connectable=0;top=0;left=0;bottom=0;right=0;editable=1;overflow=hidden;" parent="n2HK4dKVuAgLni7QQ9FL-129" vertex="1">
          <mxGeometry width="30" height="30" as="geometry">
            <mxRectangle width="30" height="30" as="alternateBounds" />
          </mxGeometry>
        </mxCell>
        <mxCell id="n2HK4dKVuAgLni7QQ9FL-131" value="message" style="shape=partialRectangle;connectable=0;top=0;left=0;bottom=0;right=0;align=left;spacingLeft=6;overflow=hidden;" parent="n2HK4dKVuAgLni7QQ9FL-129" vertex="1">
          <mxGeometry x="30" width="150" height="30" as="geometry">
            <mxRectangle width="150" height="30" as="alternateBounds" />
          </mxGeometry>
        </mxCell>
        <mxCell id="n2HK4dKVuAgLni7QQ9FL-126" value="" style="shape=tableRow;horizontal=0;startSize=0;swimlaneHead=0;swimlaneBody=0;fillColor=none;collapsible=0;dropTarget=0;points=[[0,0.5],[1,0.5]];portConstraint=eastwest;top=0;left=0;right=0;bottom=0;" parent="n2HK4dKVuAgLni7QQ9FL-116" vertex="1">
          <mxGeometry y="150" width="180" height="30" as="geometry" />
        </mxCell>
        <mxCell id="n2HK4dKVuAgLni7QQ9FL-127" value="" style="shape=partialRectangle;connectable=0;top=0;left=0;bottom=0;right=0;editable=1;overflow=hidden;whiteSpace=wrap;html=1;" parent="n2HK4dKVuAgLni7QQ9FL-126" vertex="1">
          <mxGeometry width="30" height="30" as="geometry">
            <mxRectangle width="30" height="30" as="alternateBounds" />
          </mxGeometry>
        </mxCell>
        <mxCell id="n2HK4dKVuAgLni7QQ9FL-128" value="createdDateTime" style="shape=partialRectangle;connectable=0;top=0;left=0;bottom=0;right=0;align=left;spacingLeft=6;overflow=hidden;whiteSpace=wrap;html=1;" parent="n2HK4dKVuAgLni7QQ9FL-126" vertex="1">
          <mxGeometry x="30" width="150" height="30" as="geometry">
            <mxRectangle width="150" height="30" as="alternateBounds" />
          </mxGeometry>
        </mxCell>
        <mxCell id="n2HK4dKVuAgLni7QQ9FL-132" value="AuthUserBookRating" style="shape=table;startSize=30;container=1;collapsible=1;childLayout=tableLayout;fixedRows=1;rowLines=0;fontStyle=1;align=center;resizeLast=1;html=1;fillColor=#dae8fc;strokeColor=#6c8ebf;" parent="1" vertex="1">
          <mxGeometry x="310" y="400" width="210" height="180" as="geometry" />
        </mxCell>
        <mxCell id="n2HK4dKVuAgLni7QQ9FL-133" value="" style="shape=tableRow;horizontal=0;startSize=0;swimlaneHead=0;swimlaneBody=0;fillColor=none;collapsible=0;dropTarget=0;points=[[0,0.5],[1,0.5]];portConstraint=eastwest;top=0;left=0;right=0;bottom=1;" parent="n2HK4dKVuAgLni7QQ9FL-132" vertex="1">
          <mxGeometry y="30" width="210" height="30" as="geometry" />
        </mxCell>
        <mxCell id="n2HK4dKVuAgLni7QQ9FL-134" value="PK" style="shape=partialRectangle;connectable=0;top=0;left=0;bottom=0;right=0;fontStyle=1;overflow=hidden;whiteSpace=wrap;html=1;" parent="n2HK4dKVuAgLni7QQ9FL-133" vertex="1">
          <mxGeometry width="70" height="30" as="geometry">
            <mxRectangle width="70" height="30" as="alternateBounds" />
          </mxGeometry>
        </mxCell>
        <mxCell id="n2HK4dKVuAgLni7QQ9FL-135" value="id" style="shape=partialRectangle;connectable=0;top=0;left=0;bottom=0;right=0;align=left;spacingLeft=6;fontStyle=5;overflow=hidden;whiteSpace=wrap;html=1;" parent="n2HK4dKVuAgLni7QQ9FL-133" vertex="1">
          <mxGeometry x="70" width="140" height="30" as="geometry">
            <mxRectangle width="140" height="30" as="alternateBounds" />
          </mxGeometry>
        </mxCell>
        <mxCell id="n2HK4dKVuAgLni7QQ9FL-136" value="" style="shape=tableRow;horizontal=0;startSize=0;swimlaneHead=0;swimlaneBody=0;fillColor=none;collapsible=0;dropTarget=0;points=[[0,0.5],[1,0.5]];portConstraint=eastwest;top=0;left=0;right=0;bottom=0;" parent="n2HK4dKVuAgLni7QQ9FL-132" vertex="1">
          <mxGeometry y="60" width="210" height="30" as="geometry" />
        </mxCell>
        <mxCell id="n2HK4dKVuAgLni7QQ9FL-137" value="&lt;meta charset=&quot;utf-8&quot;&gt;&lt;span style=&quot;color: rgb(0, 0, 0); font-family: Helvetica; font-size: 12px; font-style: normal; font-variant-ligatures: normal; font-variant-caps: normal; font-weight: 400; letter-spacing: normal; orphans: 2; text-align: center; text-indent: 0px; text-transform: none; widows: 2; word-spacing: 0px; -webkit-text-stroke-width: 0px; white-space: normal; background-color: rgb(251, 251, 251); text-decoration-thickness: initial; text-decoration-style: initial; text-decoration-color: initial; display: inline !important; float: none;&quot;&gt;FK&lt;/span&gt;" style="shape=partialRectangle;connectable=0;top=0;left=0;bottom=0;right=0;editable=1;overflow=hidden;whiteSpace=wrap;html=1;" parent="n2HK4dKVuAgLni7QQ9FL-136" vertex="1">
          <mxGeometry width="70" height="30" as="geometry">
            <mxRectangle width="70" height="30" as="alternateBounds" />
          </mxGeometry>
        </mxCell>
        <mxCell id="n2HK4dKVuAgLni7QQ9FL-138" value="authUserId" style="shape=partialRectangle;connectable=0;top=0;left=0;bottom=0;right=0;align=left;spacingLeft=6;overflow=hidden;whiteSpace=wrap;html=1;" parent="n2HK4dKVuAgLni7QQ9FL-136" vertex="1">
          <mxGeometry x="70" width="140" height="30" as="geometry">
            <mxRectangle width="140" height="30" as="alternateBounds" />
          </mxGeometry>
        </mxCell>
        <mxCell id="n2HK4dKVuAgLni7QQ9FL-139" value="" style="shape=tableRow;horizontal=0;startSize=0;swimlaneHead=0;swimlaneBody=0;fillColor=none;collapsible=0;dropTarget=0;points=[[0,0.5],[1,0.5]];portConstraint=eastwest;top=0;left=0;right=0;bottom=0;" parent="n2HK4dKVuAgLni7QQ9FL-132" vertex="1">
          <mxGeometry y="90" width="210" height="30" as="geometry" />
        </mxCell>
        <mxCell id="n2HK4dKVuAgLni7QQ9FL-140" value="&lt;meta charset=&quot;utf-8&quot;&gt;&lt;span style=&quot;color: rgb(0, 0, 0); font-family: Helvetica; font-size: 12px; font-style: normal; font-variant-ligatures: normal; font-variant-caps: normal; font-weight: 400; letter-spacing: normal; orphans: 2; text-align: center; text-indent: 0px; text-transform: none; widows: 2; word-spacing: 0px; -webkit-text-stroke-width: 0px; white-space: normal; background-color: rgb(251, 251, 251); text-decoration-thickness: initial; text-decoration-style: initial; text-decoration-color: initial; display: inline !important; float: none;&quot;&gt;FK&lt;/span&gt;" style="shape=partialRectangle;connectable=0;top=0;left=0;bottom=0;right=0;editable=1;overflow=hidden;whiteSpace=wrap;html=1;" parent="n2HK4dKVuAgLni7QQ9FL-139" vertex="1">
          <mxGeometry width="70" height="30" as="geometry">
            <mxRectangle width="70" height="30" as="alternateBounds" />
          </mxGeometry>
        </mxCell>
        <mxCell id="n2HK4dKVuAgLni7QQ9FL-141" value="bookId" style="shape=partialRectangle;connectable=0;top=0;left=0;bottom=0;right=0;align=left;spacingLeft=6;overflow=hidden;whiteSpace=wrap;html=1;" parent="n2HK4dKVuAgLni7QQ9FL-139" vertex="1">
          <mxGeometry x="70" width="140" height="30" as="geometry">
            <mxRectangle width="140" height="30" as="alternateBounds" />
          </mxGeometry>
        </mxCell>
        <mxCell id="n2HK4dKVuAgLni7QQ9FL-142" value="" style="shape=tableRow;horizontal=0;startSize=0;swimlaneHead=0;swimlaneBody=0;fillColor=none;collapsible=0;dropTarget=0;points=[[0,0.5],[1,0.5]];portConstraint=eastwest;top=0;left=0;right=0;bottom=0;" parent="n2HK4dKVuAgLni7QQ9FL-132" vertex="1">
          <mxGeometry y="120" width="210" height="30" as="geometry" />
        </mxCell>
        <mxCell id="n2HK4dKVuAgLni7QQ9FL-143" value="number" style="shape=partialRectangle;connectable=0;top=0;left=0;bottom=0;right=0;editable=1;overflow=hidden;whiteSpace=wrap;html=1;" parent="n2HK4dKVuAgLni7QQ9FL-142" vertex="1">
          <mxGeometry width="70" height="30" as="geometry">
            <mxRectangle width="70" height="30" as="alternateBounds" />
          </mxGeometry>
        </mxCell>
        <mxCell id="n2HK4dKVuAgLni7QQ9FL-144" value="rating" style="shape=partialRectangle;connectable=0;top=0;left=0;bottom=0;right=0;align=left;spacingLeft=6;overflow=hidden;whiteSpace=wrap;html=1;" parent="n2HK4dKVuAgLni7QQ9FL-142" vertex="1">
          <mxGeometry x="70" width="140" height="30" as="geometry">
            <mxRectangle width="140" height="30" as="alternateBounds" />
          </mxGeometry>
        </mxCell>
        <mxCell id="n2HK4dKVuAgLni7QQ9FL-148" value="" style="shape=tableRow;horizontal=0;startSize=0;swimlaneHead=0;swimlaneBody=0;fillColor=none;collapsible=0;dropTarget=0;points=[[0,0.5],[1,0.5]];portConstraint=eastwest;top=0;left=0;right=0;bottom=0;" parent="n2HK4dKVuAgLni7QQ9FL-132" vertex="1">
          <mxGeometry y="150" width="210" height="30" as="geometry" />
        </mxCell>
        <mxCell id="n2HK4dKVuAgLni7QQ9FL-149" value="" style="shape=partialRectangle;connectable=0;top=0;left=0;bottom=0;right=0;editable=1;overflow=hidden;" parent="n2HK4dKVuAgLni7QQ9FL-148" vertex="1">
          <mxGeometry width="70" height="30" as="geometry">
            <mxRectangle width="70" height="30" as="alternateBounds" />
          </mxGeometry>
        </mxCell>
        <mxCell id="n2HK4dKVuAgLni7QQ9FL-150" value="createdDateTime" style="shape=partialRectangle;connectable=0;top=0;left=0;bottom=0;right=0;align=left;spacingLeft=6;overflow=hidden;" parent="n2HK4dKVuAgLni7QQ9FL-148" vertex="1">
          <mxGeometry x="70" width="140" height="30" as="geometry">
            <mxRectangle width="140" height="30" as="alternateBounds" />
          </mxGeometry>
        </mxCell>
        <mxCell id="n2HK4dKVuAgLni7QQ9FL-145" value="" style="edgeStyle=entityRelationEdgeStyle;fontSize=12;html=1;endArrow=ERzeroToMany;startArrow=ERmandOne;rounded=0;exitX=1;exitY=0.5;exitDx=0;exitDy=0;entryX=0;entryY=0.5;entryDx=0;entryDy=0;fillColor=#dae8fc;strokeColor=#6c8ebf;" parent="1" source="n2HK4dKVuAgLni7QQ9FL-15" target="n2HK4dKVuAgLni7QQ9FL-120" edge="1">
          <mxGeometry width="100" height="100" relative="1" as="geometry">
            <mxPoint x="150" y="460" as="sourcePoint" />
            <mxPoint x="250" y="360" as="targetPoint" />
          </mxGeometry>
        </mxCell>
        <mxCell id="n2HK4dKVuAgLni7QQ9FL-146" value="" style="edgeStyle=entityRelationEdgeStyle;fontSize=12;html=1;endArrow=ERzeroToMany;startArrow=ERmandOne;rounded=0;entryX=1;entryY=0.5;entryDx=0;entryDy=0;exitX=0;exitY=0.5;exitDx=0;exitDy=0;fillColor=#dae8fc;strokeColor=#6c8ebf;" parent="1" source="n2HK4dKVuAgLni7QQ9FL-61" target="n2HK4dKVuAgLni7QQ9FL-123" edge="1">
          <mxGeometry width="100" height="100" relative="1" as="geometry">
            <mxPoint x="550" y="410" as="sourcePoint" />
            <mxPoint x="650" y="310" as="targetPoint" />
          </mxGeometry>
        </mxCell>
        <mxCell id="n2HK4dKVuAgLni7QQ9FL-154" value="" style="edgeStyle=entityRelationEdgeStyle;fontSize=12;html=1;endArrow=ERzeroToMany;startArrow=ERmandOne;rounded=0;exitX=0;exitY=0.5;exitDx=0;exitDy=0;entryX=1;entryY=0.5;entryDx=0;entryDy=0;fillColor=#dae8fc;strokeColor=#6c8ebf;" parent="1" source="n2HK4dKVuAgLni7QQ9FL-61" target="n2HK4dKVuAgLni7QQ9FL-139" edge="1">
          <mxGeometry width="100" height="100" relative="1" as="geometry">
            <mxPoint x="710" y="370" as="sourcePoint" />
            <mxPoint x="510" y="420" as="targetPoint" />
          </mxGeometry>
        </mxCell>
        <mxCell id="n2HK4dKVuAgLni7QQ9FL-155" value="" style="edgeStyle=entityRelationEdgeStyle;fontSize=12;html=1;endArrow=ERzeroToMany;startArrow=ERmandOne;rounded=0;exitX=1;exitY=0.5;exitDx=0;exitDy=0;entryX=0;entryY=0.5;entryDx=0;entryDy=0;fillColor=#dae8fc;strokeColor=#6c8ebf;" parent="1" source="n2HK4dKVuAgLni7QQ9FL-15" target="n2HK4dKVuAgLni7QQ9FL-136" edge="1">
          <mxGeometry width="100" height="100" relative="1" as="geometry">
            <mxPoint x="220" y="95" as="sourcePoint" />
            <mxPoint x="320" y="275" as="targetPoint" />
          </mxGeometry>
        </mxCell>
        <mxCell id="n2HK4dKVuAgLni7QQ9FL-174" value="AuthUserBookFavorite" style="shape=table;startSize=30;container=1;collapsible=1;childLayout=tableLayout;fixedRows=1;rowLines=0;fontStyle=1;align=center;resizeLast=1;html=1;fillColor=#dae8fc;strokeColor=#6c8ebf;" parent="1" vertex="1">
          <mxGeometry x="310" y="630" width="180" height="180" as="geometry" />
        </mxCell>
        <mxCell id="n2HK4dKVuAgLni7QQ9FL-175" value="" style="shape=tableRow;horizontal=0;startSize=0;swimlaneHead=0;swimlaneBody=0;fillColor=none;collapsible=0;dropTarget=0;points=[[0,0.5],[1,0.5]];portConstraint=eastwest;top=0;left=0;right=0;bottom=1;" parent="n2HK4dKVuAgLni7QQ9FL-174" vertex="1">
          <mxGeometry y="30" width="180" height="30" as="geometry" />
        </mxCell>
        <mxCell id="n2HK4dKVuAgLni7QQ9FL-176" value="PK" style="shape=partialRectangle;connectable=0;top=0;left=0;bottom=0;right=0;fontStyle=1;overflow=hidden;whiteSpace=wrap;html=1;" parent="n2HK4dKVuAgLni7QQ9FL-175" vertex="1">
          <mxGeometry width="30" height="30" as="geometry">
            <mxRectangle width="30" height="30" as="alternateBounds" />
          </mxGeometry>
        </mxCell>
        <mxCell id="n2HK4dKVuAgLni7QQ9FL-177" value="id" style="shape=partialRectangle;connectable=0;top=0;left=0;bottom=0;right=0;align=left;spacingLeft=6;fontStyle=5;overflow=hidden;whiteSpace=wrap;html=1;" parent="n2HK4dKVuAgLni7QQ9FL-175" vertex="1">
          <mxGeometry x="30" width="150" height="30" as="geometry">
            <mxRectangle width="150" height="30" as="alternateBounds" />
          </mxGeometry>
        </mxCell>
        <mxCell id="n2HK4dKVuAgLni7QQ9FL-178" value="" style="shape=tableRow;horizontal=0;startSize=0;swimlaneHead=0;swimlaneBody=0;fillColor=none;collapsible=0;dropTarget=0;points=[[0,0.5],[1,0.5]];portConstraint=eastwest;top=0;left=0;right=0;bottom=0;" parent="n2HK4dKVuAgLni7QQ9FL-174" vertex="1">
          <mxGeometry y="60" width="180" height="30" as="geometry" />
        </mxCell>
        <mxCell id="n2HK4dKVuAgLni7QQ9FL-179" value="FK" style="shape=partialRectangle;connectable=0;top=0;left=0;bottom=0;right=0;editable=1;overflow=hidden;whiteSpace=wrap;html=1;" parent="n2HK4dKVuAgLni7QQ9FL-178" vertex="1">
          <mxGeometry width="30" height="30" as="geometry">
            <mxRectangle width="30" height="30" as="alternateBounds" />
          </mxGeometry>
        </mxCell>
        <mxCell id="n2HK4dKVuAgLni7QQ9FL-180" value="authUserId" style="shape=partialRectangle;connectable=0;top=0;left=0;bottom=0;right=0;align=left;spacingLeft=6;overflow=hidden;whiteSpace=wrap;html=1;" parent="n2HK4dKVuAgLni7QQ9FL-178" vertex="1">
          <mxGeometry x="30" width="150" height="30" as="geometry">
            <mxRectangle width="150" height="30" as="alternateBounds" />
          </mxGeometry>
        </mxCell>
        <mxCell id="n2HK4dKVuAgLni7QQ9FL-181" value="" style="shape=tableRow;horizontal=0;startSize=0;swimlaneHead=0;swimlaneBody=0;fillColor=none;collapsible=0;dropTarget=0;points=[[0,0.5],[1,0.5]];portConstraint=eastwest;top=0;left=0;right=0;bottom=0;" parent="n2HK4dKVuAgLni7QQ9FL-174" vertex="1">
          <mxGeometry y="90" width="180" height="30" as="geometry" />
        </mxCell>
        <mxCell id="n2HK4dKVuAgLni7QQ9FL-182" value="FK" style="shape=partialRectangle;connectable=0;top=0;left=0;bottom=0;right=0;editable=1;overflow=hidden;whiteSpace=wrap;html=1;" parent="n2HK4dKVuAgLni7QQ9FL-181" vertex="1">
          <mxGeometry width="30" height="30" as="geometry">
            <mxRectangle width="30" height="30" as="alternateBounds" />
          </mxGeometry>
        </mxCell>
        <mxCell id="n2HK4dKVuAgLni7QQ9FL-183" value="bookId" style="shape=partialRectangle;connectable=0;top=0;left=0;bottom=0;right=0;align=left;spacingLeft=6;overflow=hidden;whiteSpace=wrap;html=1;" parent="n2HK4dKVuAgLni7QQ9FL-181" vertex="1">
          <mxGeometry x="30" width="150" height="30" as="geometry">
            <mxRectangle width="150" height="30" as="alternateBounds" />
          </mxGeometry>
        </mxCell>
        <mxCell id="n2HK4dKVuAgLni7QQ9FL-184" value="" style="shape=tableRow;horizontal=0;startSize=0;swimlaneHead=0;swimlaneBody=0;fillColor=none;collapsible=0;dropTarget=0;points=[[0,0.5],[1,0.5]];portConstraint=eastwest;top=0;left=0;right=0;bottom=0;" parent="n2HK4dKVuAgLni7QQ9FL-174" vertex="1">
          <mxGeometry y="120" width="180" height="30" as="geometry" />
        </mxCell>
        <mxCell id="n2HK4dKVuAgLni7QQ9FL-185" value="" style="shape=partialRectangle;connectable=0;top=0;left=0;bottom=0;right=0;editable=1;overflow=hidden;whiteSpace=wrap;html=1;" parent="n2HK4dKVuAgLni7QQ9FL-184" vertex="1">
          <mxGeometry width="30" height="30" as="geometry">
            <mxRectangle width="30" height="30" as="alternateBounds" />
          </mxGeometry>
        </mxCell>
        <mxCell id="n2HK4dKVuAgLni7QQ9FL-186" value="favorite" style="shape=partialRectangle;connectable=0;top=0;left=0;bottom=0;right=0;align=left;spacingLeft=6;overflow=hidden;whiteSpace=wrap;html=1;" parent="n2HK4dKVuAgLni7QQ9FL-184" vertex="1">
          <mxGeometry x="30" width="150" height="30" as="geometry">
            <mxRectangle width="150" height="30" as="alternateBounds" />
          </mxGeometry>
        </mxCell>
        <mxCell id="n2HK4dKVuAgLni7QQ9FL-192" value="" style="shape=tableRow;horizontal=0;startSize=0;swimlaneHead=0;swimlaneBody=0;fillColor=none;collapsible=0;dropTarget=0;points=[[0,0.5],[1,0.5]];portConstraint=eastwest;top=0;left=0;right=0;bottom=0;" parent="n2HK4dKVuAgLni7QQ9FL-174" vertex="1">
          <mxGeometry y="150" width="180" height="30" as="geometry" />
        </mxCell>
        <mxCell id="n2HK4dKVuAgLni7QQ9FL-193" value="" style="shape=partialRectangle;connectable=0;top=0;left=0;bottom=0;right=0;editable=1;overflow=hidden;" parent="n2HK4dKVuAgLni7QQ9FL-192" vertex="1">
          <mxGeometry width="30" height="30" as="geometry">
            <mxRectangle width="30" height="30" as="alternateBounds" />
          </mxGeometry>
        </mxCell>
        <mxCell id="n2HK4dKVuAgLni7QQ9FL-194" value="createdDateTime" style="shape=partialRectangle;connectable=0;top=0;left=0;bottom=0;right=0;align=left;spacingLeft=6;overflow=hidden;" parent="n2HK4dKVuAgLni7QQ9FL-192" vertex="1">
          <mxGeometry x="30" width="150" height="30" as="geometry">
            <mxRectangle width="150" height="30" as="alternateBounds" />
          </mxGeometry>
        </mxCell>
        <mxCell id="n2HK4dKVuAgLni7QQ9FL-190" value="" style="edgeStyle=entityRelationEdgeStyle;fontSize=12;html=1;endArrow=ERzeroToMany;startArrow=ERmandOne;rounded=0;entryX=0;entryY=0.5;entryDx=0;entryDy=0;exitX=1;exitY=0.5;exitDx=0;exitDy=0;fillColor=#dae8fc;strokeColor=#6c8ebf;" parent="1" source="n2HK4dKVuAgLni7QQ9FL-15" target="n2HK4dKVuAgLni7QQ9FL-178" edge="1">
          <mxGeometry width="100" height="100" relative="1" as="geometry">
            <mxPoint x="130" y="700" as="sourcePoint" />
            <mxPoint x="230" y="600" as="targetPoint" />
          </mxGeometry>
        </mxCell>
        <mxCell id="n2HK4dKVuAgLni7QQ9FL-191" value="" style="edgeStyle=entityRelationEdgeStyle;fontSize=12;html=1;endArrow=ERzeroToMany;startArrow=ERmandOne;rounded=0;entryX=1;entryY=0.5;entryDx=0;entryDy=0;exitX=0;exitY=0.5;exitDx=0;exitDy=0;fillColor=#dae8fc;strokeColor=#6c8ebf;" parent="1" source="n2HK4dKVuAgLni7QQ9FL-61" target="n2HK4dKVuAgLni7QQ9FL-181" edge="1">
          <mxGeometry width="100" height="100" relative="1" as="geometry">
            <mxPoint x="140" y="710" as="sourcePoint" />
            <mxPoint x="240" y="610" as="targetPoint" />
          </mxGeometry>
        </mxCell>
        <mxCell id="Kr0WQyPzWcLxrHGzjkJ9-14" value="BookAuthorLink" style="shape=table;startSize=30;container=1;collapsible=1;childLayout=tableLayout;fixedRows=1;rowLines=0;fontStyle=1;align=center;resizeLast=1;html=1;fillColor=#dae8fc;strokeColor=#6c8ebf;" vertex="1" parent="1">
          <mxGeometry x="1050" y="240" width="230" height="120" as="geometry" />
        </mxCell>
        <mxCell id="Kr0WQyPzWcLxrHGzjkJ9-15" value="" style="shape=tableRow;horizontal=0;startSize=0;swimlaneHead=0;swimlaneBody=0;fillColor=none;collapsible=0;dropTarget=0;points=[[0,0.5],[1,0.5]];portConstraint=eastwest;top=0;left=0;right=0;bottom=1;strokeWidth=2;" vertex="1" parent="Kr0WQyPzWcLxrHGzjkJ9-14">
          <mxGeometry y="30" width="230" height="30" as="geometry" />
        </mxCell>
        <mxCell id="Kr0WQyPzWcLxrHGzjkJ9-16" value="PK" style="shape=partialRectangle;connectable=0;top=0;left=0;bottom=0;right=0;fontStyle=1;overflow=hidden;whiteSpace=wrap;html=1;" vertex="1" parent="Kr0WQyPzWcLxrHGzjkJ9-15">
          <mxGeometry width="50" height="30" as="geometry">
            <mxRectangle width="50" height="30" as="alternateBounds" />
          </mxGeometry>
        </mxCell>
        <mxCell id="Kr0WQyPzWcLxrHGzjkJ9-17" value="id" style="shape=partialRectangle;connectable=0;top=0;left=0;bottom=0;right=0;align=left;spacingLeft=6;fontStyle=5;overflow=hidden;whiteSpace=wrap;html=1;" vertex="1" parent="Kr0WQyPzWcLxrHGzjkJ9-15">
          <mxGeometry x="50" width="180" height="30" as="geometry">
            <mxRectangle width="180" height="30" as="alternateBounds" />
          </mxGeometry>
        </mxCell>
        <mxCell id="Kr0WQyPzWcLxrHGzjkJ9-18" value="" style="shape=tableRow;horizontal=0;startSize=0;swimlaneHead=0;swimlaneBody=0;fillColor=none;collapsible=0;dropTarget=0;points=[[0,0.5],[1,0.5]];portConstraint=eastwest;top=0;left=0;right=0;bottom=0;perimeterSpacing=0;strokeWidth=1;fontStyle=1" vertex="1" parent="Kr0WQyPzWcLxrHGzjkJ9-14">
          <mxGeometry y="60" width="230" height="30" as="geometry" />
        </mxCell>
        <mxCell id="Kr0WQyPzWcLxrHGzjkJ9-19" value="FK" style="shape=partialRectangle;connectable=0;top=0;left=0;bottom=0;right=0;editable=1;overflow=hidden;whiteSpace=wrap;html=1;" vertex="1" parent="Kr0WQyPzWcLxrHGzjkJ9-18">
          <mxGeometry width="50" height="30" as="geometry">
            <mxRectangle width="50" height="30" as="alternateBounds" />
          </mxGeometry>
        </mxCell>
        <mxCell id="Kr0WQyPzWcLxrHGzjkJ9-20" value="bookId" style="shape=partialRectangle;connectable=0;top=0;left=0;bottom=0;right=0;align=left;spacingLeft=6;overflow=hidden;whiteSpace=wrap;html=1;" vertex="1" parent="Kr0WQyPzWcLxrHGzjkJ9-18">
          <mxGeometry x="50" width="180" height="30" as="geometry">
            <mxRectangle width="180" height="30" as="alternateBounds" />
          </mxGeometry>
        </mxCell>
        <mxCell id="Kr0WQyPzWcLxrHGzjkJ9-21" value="" style="shape=tableRow;horizontal=0;startSize=0;swimlaneHead=0;swimlaneBody=0;fillColor=none;collapsible=0;dropTarget=0;points=[[0,0.5],[1,0.5]];portConstraint=eastwest;top=0;left=0;right=0;bottom=0;" vertex="1" parent="Kr0WQyPzWcLxrHGzjkJ9-14">
          <mxGeometry y="90" width="230" height="30" as="geometry" />
        </mxCell>
        <mxCell id="Kr0WQyPzWcLxrHGzjkJ9-22" value="FK" style="shape=partialRectangle;connectable=0;top=0;left=0;bottom=0;right=0;editable=1;overflow=hidden;whiteSpace=wrap;html=1;" vertex="1" parent="Kr0WQyPzWcLxrHGzjkJ9-21">
          <mxGeometry width="50" height="30" as="geometry">
            <mxRectangle width="50" height="30" as="alternateBounds" />
          </mxGeometry>
        </mxCell>
        <mxCell id="Kr0WQyPzWcLxrHGzjkJ9-23" value="authorId" style="shape=partialRectangle;connectable=0;top=0;left=0;bottom=0;right=0;align=left;spacingLeft=6;overflow=hidden;whiteSpace=wrap;html=1;" vertex="1" parent="Kr0WQyPzWcLxrHGzjkJ9-21">
          <mxGeometry x="50" width="180" height="30" as="geometry">
            <mxRectangle width="180" height="30" as="alternateBounds" />
          </mxGeometry>
        </mxCell>
        <mxCell id="Kr0WQyPzWcLxrHGzjkJ9-48" value="BookCategoryLink" style="shape=table;startSize=30;container=1;collapsible=1;childLayout=tableLayout;fixedRows=1;rowLines=0;fontStyle=1;align=center;resizeLast=1;html=1;fillColor=#dae8fc;strokeColor=#6c8ebf;" vertex="1" parent="1">
          <mxGeometry x="1040" y="460" width="230" height="120" as="geometry" />
        </mxCell>
        <mxCell id="Kr0WQyPzWcLxrHGzjkJ9-49" value="" style="shape=tableRow;horizontal=0;startSize=0;swimlaneHead=0;swimlaneBody=0;fillColor=none;collapsible=0;dropTarget=0;points=[[0,0.5],[1,0.5]];portConstraint=eastwest;top=0;left=0;right=0;bottom=1;strokeWidth=2;" vertex="1" parent="Kr0WQyPzWcLxrHGzjkJ9-48">
          <mxGeometry y="30" width="230" height="30" as="geometry" />
        </mxCell>
        <mxCell id="Kr0WQyPzWcLxrHGzjkJ9-50" value="PK" style="shape=partialRectangle;connectable=0;top=0;left=0;bottom=0;right=0;fontStyle=1;overflow=hidden;whiteSpace=wrap;html=1;" vertex="1" parent="Kr0WQyPzWcLxrHGzjkJ9-49">
          <mxGeometry width="50" height="30" as="geometry">
            <mxRectangle width="50" height="30" as="alternateBounds" />
          </mxGeometry>
        </mxCell>
        <mxCell id="Kr0WQyPzWcLxrHGzjkJ9-51" value="id" style="shape=partialRectangle;connectable=0;top=0;left=0;bottom=0;right=0;align=left;spacingLeft=6;fontStyle=5;overflow=hidden;whiteSpace=wrap;html=1;" vertex="1" parent="Kr0WQyPzWcLxrHGzjkJ9-49">
          <mxGeometry x="50" width="180" height="30" as="geometry">
            <mxRectangle width="180" height="30" as="alternateBounds" />
          </mxGeometry>
        </mxCell>
        <mxCell id="Kr0WQyPzWcLxrHGzjkJ9-52" value="" style="shape=tableRow;horizontal=0;startSize=0;swimlaneHead=0;swimlaneBody=0;fillColor=none;collapsible=0;dropTarget=0;points=[[0,0.5],[1,0.5]];portConstraint=eastwest;top=0;left=0;right=0;bottom=0;perimeterSpacing=0;strokeWidth=1;fontStyle=1" vertex="1" parent="Kr0WQyPzWcLxrHGzjkJ9-48">
          <mxGeometry y="60" width="230" height="30" as="geometry" />
        </mxCell>
        <mxCell id="Kr0WQyPzWcLxrHGzjkJ9-53" value="FK" style="shape=partialRectangle;connectable=0;top=0;left=0;bottom=0;right=0;editable=1;overflow=hidden;whiteSpace=wrap;html=1;" vertex="1" parent="Kr0WQyPzWcLxrHGzjkJ9-52">
          <mxGeometry width="50" height="30" as="geometry">
            <mxRectangle width="50" height="30" as="alternateBounds" />
          </mxGeometry>
        </mxCell>
        <mxCell id="Kr0WQyPzWcLxrHGzjkJ9-54" value="bookId" style="shape=partialRectangle;connectable=0;top=0;left=0;bottom=0;right=0;align=left;spacingLeft=6;overflow=hidden;whiteSpace=wrap;html=1;" vertex="1" parent="Kr0WQyPzWcLxrHGzjkJ9-52">
          <mxGeometry x="50" width="180" height="30" as="geometry">
            <mxRectangle width="180" height="30" as="alternateBounds" />
          </mxGeometry>
        </mxCell>
        <mxCell id="Kr0WQyPzWcLxrHGzjkJ9-55" value="" style="shape=tableRow;horizontal=0;startSize=0;swimlaneHead=0;swimlaneBody=0;fillColor=none;collapsible=0;dropTarget=0;points=[[0,0.5],[1,0.5]];portConstraint=eastwest;top=0;left=0;right=0;bottom=0;" vertex="1" parent="Kr0WQyPzWcLxrHGzjkJ9-48">
          <mxGeometry y="90" width="230" height="30" as="geometry" />
        </mxCell>
        <mxCell id="Kr0WQyPzWcLxrHGzjkJ9-56" value="FK" style="shape=partialRectangle;connectable=0;top=0;left=0;bottom=0;right=0;editable=1;overflow=hidden;whiteSpace=wrap;html=1;" vertex="1" parent="Kr0WQyPzWcLxrHGzjkJ9-55">
          <mxGeometry width="50" height="30" as="geometry">
            <mxRectangle width="50" height="30" as="alternateBounds" />
          </mxGeometry>
        </mxCell>
        <mxCell id="Kr0WQyPzWcLxrHGzjkJ9-57" value="authorId" style="shape=partialRectangle;connectable=0;top=0;left=0;bottom=0;right=0;align=left;spacingLeft=6;overflow=hidden;whiteSpace=wrap;html=1;" vertex="1" parent="Kr0WQyPzWcLxrHGzjkJ9-55">
          <mxGeometry x="50" width="180" height="30" as="geometry">
            <mxRectangle width="180" height="30" as="alternateBounds" />
          </mxGeometry>
        </mxCell>
        <mxCell id="Kr0WQyPzWcLxrHGzjkJ9-58" value="BookCategory" style="shape=table;startSize=30;container=1;collapsible=1;childLayout=tableLayout;fixedRows=1;rowLines=0;fontStyle=1;align=center;resizeLast=1;html=1;fillColor=#dae8fc;strokeColor=#6c8ebf;" vertex="1" parent="1">
          <mxGeometry x="1350" y="475" width="230" height="90" as="geometry" />
        </mxCell>
        <mxCell id="Kr0WQyPzWcLxrHGzjkJ9-59" value="" style="shape=tableRow;horizontal=0;startSize=0;swimlaneHead=0;swimlaneBody=0;fillColor=none;collapsible=0;dropTarget=0;points=[[0,0.5],[1,0.5]];portConstraint=eastwest;top=0;left=0;right=0;bottom=1;strokeWidth=2;" vertex="1" parent="Kr0WQyPzWcLxrHGzjkJ9-58">
          <mxGeometry y="30" width="230" height="30" as="geometry" />
        </mxCell>
        <mxCell id="Kr0WQyPzWcLxrHGzjkJ9-60" value="PK" style="shape=partialRectangle;connectable=0;top=0;left=0;bottom=0;right=0;fontStyle=1;overflow=hidden;whiteSpace=wrap;html=1;" vertex="1" parent="Kr0WQyPzWcLxrHGzjkJ9-59">
          <mxGeometry width="50" height="30" as="geometry">
            <mxRectangle width="50" height="30" as="alternateBounds" />
          </mxGeometry>
        </mxCell>
        <mxCell id="Kr0WQyPzWcLxrHGzjkJ9-61" value="id" style="shape=partialRectangle;connectable=0;top=0;left=0;bottom=0;right=0;align=left;spacingLeft=6;fontStyle=5;overflow=hidden;whiteSpace=wrap;html=1;" vertex="1" parent="Kr0WQyPzWcLxrHGzjkJ9-59">
          <mxGeometry x="50" width="180" height="30" as="geometry">
            <mxRectangle width="180" height="30" as="alternateBounds" />
          </mxGeometry>
        </mxCell>
        <mxCell id="Kr0WQyPzWcLxrHGzjkJ9-62" value="" style="shape=tableRow;horizontal=0;startSize=0;swimlaneHead=0;swimlaneBody=0;fillColor=none;collapsible=0;dropTarget=0;points=[[0,0.5],[1,0.5]];portConstraint=eastwest;top=0;left=0;right=0;bottom=0;perimeterSpacing=0;strokeWidth=1;fontStyle=1" vertex="1" parent="Kr0WQyPzWcLxrHGzjkJ9-58">
          <mxGeometry y="60" width="230" height="30" as="geometry" />
        </mxCell>
        <mxCell id="Kr0WQyPzWcLxrHGzjkJ9-63" value="" style="shape=partialRectangle;connectable=0;top=0;left=0;bottom=0;right=0;editable=1;overflow=hidden;whiteSpace=wrap;html=1;" vertex="1" parent="Kr0WQyPzWcLxrHGzjkJ9-62">
          <mxGeometry width="50" height="30" as="geometry">
            <mxRectangle width="50" height="30" as="alternateBounds" />
          </mxGeometry>
        </mxCell>
        <mxCell id="Kr0WQyPzWcLxrHGzjkJ9-64" value="name" style="shape=partialRectangle;connectable=0;top=0;left=0;bottom=0;right=0;align=left;spacingLeft=6;overflow=hidden;whiteSpace=wrap;html=1;" vertex="1" parent="Kr0WQyPzWcLxrHGzjkJ9-62">
          <mxGeometry x="50" width="180" height="30" as="geometry">
            <mxRectangle width="180" height="30" as="alternateBounds" />
          </mxGeometry>
        </mxCell>
        <mxCell id="Kr0WQyPzWcLxrHGzjkJ9-68" value="BookAuthor" style="shape=table;startSize=30;container=1;collapsible=1;childLayout=tableLayout;fixedRows=1;rowLines=0;fontStyle=1;align=center;resizeLast=1;html=1;fillColor=#dae8fc;strokeColor=#6c8ebf;" vertex="1" parent="1">
          <mxGeometry x="1340" y="240" width="230" height="90" as="geometry" />
        </mxCell>
        <mxCell id="Kr0WQyPzWcLxrHGzjkJ9-69" value="" style="shape=tableRow;horizontal=0;startSize=0;swimlaneHead=0;swimlaneBody=0;fillColor=none;collapsible=0;dropTarget=0;points=[[0,0.5],[1,0.5]];portConstraint=eastwest;top=0;left=0;right=0;bottom=1;strokeWidth=2;" vertex="1" parent="Kr0WQyPzWcLxrHGzjkJ9-68">
          <mxGeometry y="30" width="230" height="30" as="geometry" />
        </mxCell>
        <mxCell id="Kr0WQyPzWcLxrHGzjkJ9-70" value="PK" style="shape=partialRectangle;connectable=0;top=0;left=0;bottom=0;right=0;fontStyle=1;overflow=hidden;whiteSpace=wrap;html=1;" vertex="1" parent="Kr0WQyPzWcLxrHGzjkJ9-69">
          <mxGeometry width="50" height="30" as="geometry">
            <mxRectangle width="50" height="30" as="alternateBounds" />
          </mxGeometry>
        </mxCell>
        <mxCell id="Kr0WQyPzWcLxrHGzjkJ9-71" value="id" style="shape=partialRectangle;connectable=0;top=0;left=0;bottom=0;right=0;align=left;spacingLeft=6;fontStyle=5;overflow=hidden;whiteSpace=wrap;html=1;" vertex="1" parent="Kr0WQyPzWcLxrHGzjkJ9-69">
          <mxGeometry x="50" width="180" height="30" as="geometry">
            <mxRectangle width="180" height="30" as="alternateBounds" />
          </mxGeometry>
        </mxCell>
        <mxCell id="Kr0WQyPzWcLxrHGzjkJ9-72" value="" style="shape=tableRow;horizontal=0;startSize=0;swimlaneHead=0;swimlaneBody=0;fillColor=none;collapsible=0;dropTarget=0;points=[[0,0.5],[1,0.5]];portConstraint=eastwest;top=0;left=0;right=0;bottom=0;perimeterSpacing=0;strokeWidth=1;fontStyle=1" vertex="1" parent="Kr0WQyPzWcLxrHGzjkJ9-68">
          <mxGeometry y="60" width="230" height="30" as="geometry" />
        </mxCell>
        <mxCell id="Kr0WQyPzWcLxrHGzjkJ9-73" value="" style="shape=partialRectangle;connectable=0;top=0;left=0;bottom=0;right=0;editable=1;overflow=hidden;whiteSpace=wrap;html=1;" vertex="1" parent="Kr0WQyPzWcLxrHGzjkJ9-72">
          <mxGeometry width="50" height="30" as="geometry">
            <mxRectangle width="50" height="30" as="alternateBounds" />
          </mxGeometry>
        </mxCell>
        <mxCell id="Kr0WQyPzWcLxrHGzjkJ9-74" value="name" style="shape=partialRectangle;connectable=0;top=0;left=0;bottom=0;right=0;align=left;spacingLeft=6;overflow=hidden;whiteSpace=wrap;html=1;" vertex="1" parent="Kr0WQyPzWcLxrHGzjkJ9-72">
          <mxGeometry x="50" width="180" height="30" as="geometry">
            <mxRectangle width="180" height="30" as="alternateBounds" />
          </mxGeometry>
        </mxCell>
        <mxCell id="Kr0WQyPzWcLxrHGzjkJ9-78" value="" style="edgeStyle=entityRelationEdgeStyle;fontSize=12;html=1;endArrow=ERzeroToMany;startArrow=ERmandOne;rounded=0;entryX=1;entryY=0.5;entryDx=0;entryDy=0;exitX=0;exitY=0.5;exitDx=0;exitDy=0;" edge="1" parent="1" source="Kr0WQyPzWcLxrHGzjkJ9-59" target="Kr0WQyPzWcLxrHGzjkJ9-55">
          <mxGeometry width="100" height="100" relative="1" as="geometry">
            <mxPoint x="950" y="740" as="sourcePoint" />
            <mxPoint x="1050" y="640" as="targetPoint" />
          </mxGeometry>
        </mxCell>
        <mxCell id="Kr0WQyPzWcLxrHGzjkJ9-79" value="" style="edgeStyle=entityRelationEdgeStyle;fontSize=12;html=1;endArrow=ERzeroToMany;startArrow=ERmandOne;rounded=0;entryX=1;entryY=0.5;entryDx=0;entryDy=0;exitX=0;exitY=0.5;exitDx=0;exitDy=0;" edge="1" parent="1" source="Kr0WQyPzWcLxrHGzjkJ9-69" target="Kr0WQyPzWcLxrHGzjkJ9-21">
          <mxGeometry width="100" height="100" relative="1" as="geometry">
            <mxPoint x="960" y="750" as="sourcePoint" />
            <mxPoint x="1060" y="650" as="targetPoint" />
          </mxGeometry>
        </mxCell>
        <mxCell id="Kr0WQyPzWcLxrHGzjkJ9-80" value="" style="edgeStyle=entityRelationEdgeStyle;fontSize=12;html=1;endArrow=ERzeroToMany;startArrow=ERmandOne;rounded=0;exitX=1;exitY=0.5;exitDx=0;exitDy=0;" edge="1" parent="1" source="n2HK4dKVuAgLni7QQ9FL-61" target="Kr0WQyPzWcLxrHGzjkJ9-18">
          <mxGeometry width="100" height="100" relative="1" as="geometry">
            <mxPoint x="970" y="760" as="sourcePoint" />
            <mxPoint x="1070" y="660" as="targetPoint" />
          </mxGeometry>
        </mxCell>
        <mxCell id="Kr0WQyPzWcLxrHGzjkJ9-81" value="" style="edgeStyle=entityRelationEdgeStyle;fontSize=12;html=1;endArrow=ERzeroToMany;startArrow=ERmandOne;rounded=0;exitX=1;exitY=0.5;exitDx=0;exitDy=0;entryX=0;entryY=0.5;entryDx=0;entryDy=0;" edge="1" parent="1" source="n2HK4dKVuAgLni7QQ9FL-61" target="Kr0WQyPzWcLxrHGzjkJ9-52">
          <mxGeometry width="100" height="100" relative="1" as="geometry">
            <mxPoint x="980" y="770" as="sourcePoint" />
            <mxPoint x="1080" y="670" as="targetPoint" />
          </mxGeometry>
        </mxCell>
        <mxCell id="Kr0WQyPzWcLxrHGzjkJ9-82" value="BookImport" style="shape=table;startSize=30;container=1;collapsible=1;childLayout=tableLayout;fixedRows=1;rowLines=0;fontStyle=1;align=center;resizeLast=1;html=1;fillColor=#dae8fc;strokeColor=#6c8ebf;" vertex="1" parent="1">
          <mxGeometry x="710" y="55" width="230" height="90" as="geometry" />
        </mxCell>
        <mxCell id="Kr0WQyPzWcLxrHGzjkJ9-83" value="" style="shape=tableRow;horizontal=0;startSize=0;swimlaneHead=0;swimlaneBody=0;fillColor=none;collapsible=0;dropTarget=0;points=[[0,0.5],[1,0.5]];portConstraint=eastwest;top=0;left=0;right=0;bottom=1;strokeWidth=2;" vertex="1" parent="Kr0WQyPzWcLxrHGzjkJ9-82">
          <mxGeometry y="30" width="230" height="30" as="geometry" />
        </mxCell>
        <mxCell id="Kr0WQyPzWcLxrHGzjkJ9-84" value="PK" style="shape=partialRectangle;connectable=0;top=0;left=0;bottom=0;right=0;fontStyle=1;overflow=hidden;whiteSpace=wrap;html=1;" vertex="1" parent="Kr0WQyPzWcLxrHGzjkJ9-83">
          <mxGeometry width="50" height="30" as="geometry">
            <mxRectangle width="50" height="30" as="alternateBounds" />
          </mxGeometry>
        </mxCell>
        <mxCell id="Kr0WQyPzWcLxrHGzjkJ9-85" value="id" style="shape=partialRectangle;connectable=0;top=0;left=0;bottom=0;right=0;align=left;spacingLeft=6;fontStyle=5;overflow=hidden;whiteSpace=wrap;html=1;" vertex="1" parent="Kr0WQyPzWcLxrHGzjkJ9-83">
          <mxGeometry x="50" width="180" height="30" as="geometry">
            <mxRectangle width="180" height="30" as="alternateBounds" />
          </mxGeometry>
        </mxCell>
        <mxCell id="Kr0WQyPzWcLxrHGzjkJ9-86" value="" style="shape=tableRow;horizontal=0;startSize=0;swimlaneHead=0;swimlaneBody=0;fillColor=none;collapsible=0;dropTarget=0;points=[[0,0.5],[1,0.5]];portConstraint=eastwest;top=0;left=0;right=0;bottom=0;perimeterSpacing=0;strokeWidth=1;fontStyle=1" vertex="1" parent="Kr0WQyPzWcLxrHGzjkJ9-82">
          <mxGeometry y="60" width="230" height="30" as="geometry" />
        </mxCell>
        <mxCell id="Kr0WQyPzWcLxrHGzjkJ9-87" value="BYTEA" style="shape=partialRectangle;connectable=0;top=0;left=0;bottom=0;right=0;editable=1;overflow=hidden;whiteSpace=wrap;html=1;" vertex="1" parent="Kr0WQyPzWcLxrHGzjkJ9-86">
          <mxGeometry width="50" height="30" as="geometry">
            <mxRectangle width="50" height="30" as="alternateBounds" />
          </mxGeometry>
        </mxCell>
        <mxCell id="Kr0WQyPzWcLxrHGzjkJ9-88" value="content" style="shape=partialRectangle;connectable=0;top=0;left=0;bottom=0;right=0;align=left;spacingLeft=6;overflow=hidden;whiteSpace=wrap;html=1;" vertex="1" parent="Kr0WQyPzWcLxrHGzjkJ9-86">
          <mxGeometry x="50" width="180" height="30" as="geometry">
            <mxRectangle width="180" height="30" as="alternateBounds" />
          </mxGeometry>
        </mxCell>
      </root>
    </mxGraphModel>
  </diagram>
</mxfile>
